<svg width="17" height="23" viewBox="0 0 17 23" fill="none" xmlns="http://www.w3.org/2000/svg">
<g clip-path="url(#clip0_2603_1221)">
<path d="M2.07992e-06 1.59554V1.79806C2.07992e-06 7.1998 2.07992e-06 12.5997 2.07992e-06 18.0014C2.07992e-06 19.1257 2.07992e-06 20.2537 2.07992e-06 21.3799C2.07992e-06 21.4593 -0.00180797 21.5161 0.101365 21.5332C0.868827 21.6675 1.63629 21.8076 2.40375 21.9477C4.02918 22.2429 5.65641 22.5363 7.28184 22.8316C7.59317 22.8883 7.90269 22.9432 8.22306 23V0C5.47541 0.533739 2.74404 1.0618 2.07992e-06 1.59554ZM6.40758 12.1946C6.07453 12.1889 5.79941 11.8918 5.80665 11.5454C5.81389 11.1934 6.09082 10.9114 6.42749 10.9171C6.76235 10.9227 7.03567 11.2142 7.03024 11.5644C7.02481 11.9145 6.74244 12.2003 6.40939 12.1946H6.40758Z" fill="#555555"/>
<path d="M17 10.4705V12.7607H14.4949V14.0969C13.3745 13.2622 12.2794 12.4465 11.1644 11.6156C12.2722 10.7904 13.3691 9.97274 14.4949 9.13428V10.4724H17V10.4705Z" fill="#555555"/>
<path d="M12.2523 9.5049C12.2523 9.62035 12.2215 9.69038 12.1292 9.75473C11.8794 9.93264 11.635 10.12 11.3672 10.3206V2.28806H8.92358V1.41553H12.2505V1.55937C12.2505 4.20914 12.2505 6.85702 12.2523 9.50679V9.5049Z" fill="#555555"/>
<path d="M12.2504 21.5084V21.692H8.91626V20.8289H11.3616V12.9023C11.5915 13.0746 11.7888 13.2411 12.0042 13.3755C12.1979 13.4966 12.2576 13.6443 12.2558 13.8809C12.2468 16.4228 12.2504 18.9646 12.2504 21.5084Z" fill="#555555"/>
</g>
<defs>
<clipPath id="clip0_2603_1221">
<rect width="17" height="23" fill="white"/>
</clipPath>
</defs>
</svg>
