<svg width="20" height="15" viewBox="0 0 20 15" fill="none" xmlns="http://www.w3.org/2000/svg">
<path d="M18.8691 4.7633C19.0156 4.64684 19.2335 4.75578 19.2335 4.93985V12.622C19.2335 13.6175 18.4258 14.4251 17.4304 14.4251H1.80314C0.807656 14.4251 0 13.6175 0 12.622V4.94361C0 4.75578 0.214123 4.6506 0.364385 4.76705C1.20585 5.42069 2.32154 6.25089 6.15322 9.03448C6.94585 9.61299 8.28317 10.8301 9.61675 10.8226C10.9578 10.8339 12.3215 9.59045 13.084 9.03448C16.9157 6.25089 18.0276 5.41693 18.8691 4.7633ZM9.61675 9.61675C10.4883 9.63177 11.7429 8.51984 12.374 8.06154C17.359 4.44399 17.7384 4.12844 18.8879 3.22687C19.1058 3.05782 19.2335 2.79487 19.2335 2.51688V1.80314C19.2335 0.807656 18.4258 0 17.4304 0H1.80314C0.807656 0 0 0.807656 0 1.80314V2.51688C0 2.79487 0.127722 3.05407 0.345602 3.22687C1.4951 4.12468 1.87451 4.44399 6.85945 8.06154C7.49054 8.51984 8.74523 9.63177 9.61675 9.61675Z" fill="white"/>
</svg>
