<svg width="112" height="112" viewBox="0 0 112 112" fill="none" xmlns="http://www.w3.org/2000/svg">
<circle cx="56" cy="56" r="56" fill="#888888"/>
<path d="M70.35 46.65V40.75C70.35 32.49 63.86 26 55.6 26C47.34 26 40.85 32.49 40.85 40.75V46.65C35.835 46.65 32 50.485 32 55.5V76.15C32 81.165 35.835 85 40.85 85H70.35C75.365 85 79.2 81.165 79.2 76.15V55.5C79.2 50.485 75.365 46.65 70.35 46.65ZM46.75 40.75C46.75 35.735 50.585 31.9 55.6 31.9C60.615 31.9 64.45 35.735 64.45 40.75V46.65H46.75V40.75ZM58.845 65.825L58.55 66.12V70.25C58.55 72.02 57.37 73.2 55.6 73.2C53.83 73.2 52.65 72.02 52.65 70.25V66.12C50.88 64.35 50.585 61.695 52.355 59.925C54.125 58.155 56.78 57.86 58.55 59.63C60.32 61.105 60.615 64.055 58.845 65.825Z" fill="white"/>
</svg>
