<svg width="34" height="33" viewBox="0 0 34 33" fill="none" xmlns="http://www.w3.org/2000/svg">
<path d="M23.6688 14.8496C21.54 14.8496 21.2454 16.971 21.2454 16.971H25.7681C25.7681 16.971 25.7976 14.8496 23.6688 14.8496Z" fill="white"/>
<path d="M13.4078 16.9717H9.40063V20.6547H13.2089C13.7834 20.64 14.8589 20.4779 14.8589 18.8648C14.8589 16.9496 13.4078 16.9717 13.4078 16.9717Z" fill="white"/>
<path d="M17.1792 0C8.06737 0 0.679199 7.38817 0.679199 16.5C0.679199 25.6118 8.06737 33 17.1792 33C26.291 33 33.6792 25.6118 33.6792 16.5C33.6792 7.38817 26.291 0 17.1792 0ZM20.656 10.1357H26.3352V11.8299H20.656V10.1357ZM17.7832 19.0339C17.7832 23.2326 13.4078 23.1 13.4078 23.1H6.24795V9.32545H13.4078C15.5881 9.32545 17.3044 10.5261 17.3044 12.9937C17.3044 15.4614 15.2051 15.6161 15.2051 15.6161C17.9747 15.6161 17.7832 19.0339 17.7832 19.0339ZM28.4051 18.8056H21.2674C21.2674 21.3616 23.6908 21.1996 23.6908 21.1996C25.9817 21.1996 25.9006 19.719 25.9006 19.719H28.3241C28.3241 23.6525 23.6098 23.3799 23.6098 23.3799C17.96 23.3799 18.3209 18.1132 18.3209 18.1132C18.3209 18.1132 18.3136 12.8243 23.6098 12.8243C29.1859 12.8317 28.4051 18.8056 28.4051 18.8056Z" fill="white"/>
<path d="M14.3801 13.2083C14.3801 11.7793 13.4078 11.7793 13.4078 11.7793H9.40063V14.8509H13.1573C13.8055 14.8509 14.3801 14.6373 14.3801 13.2083Z" fill="white"/>
</svg>
