<svg width="28" height="28" viewBox="0 0 28 28" fill="none" xmlns="http://www.w3.org/2000/svg">
<path d="M27.9801 13.1743C27.5041 5.05452 20.1262 -1.20335 11.6284 0.196626C5.7765 1.16261 1.08659 5.90848 0.17661 11.7603C-0.35538 15.1483 0.344634 18.3542 1.8706 21.0001L0.624615 25.634C0.34462 26.684 1.31057 27.636 2.34655 27.342L6.91048 26.082C8.98243 27.3 11.4044 28 13.9943 28C21.8902 28 28.4421 21.0421 27.9801 13.1743ZM20.8402 19.2082C20.7142 19.4602 20.5602 19.6982 20.3642 19.9222C20.0142 20.3002 19.6362 20.5801 19.2162 20.7481C18.7962 20.9301 18.3343 21.0141 17.8443 21.0141C17.1303 21.0141 16.3603 20.8463 15.5623 20.4963C14.7503 20.1463 13.9523 19.6842 13.1544 19.1102C12.3424 18.5222 11.5864 17.8642 10.8584 17.1502C10.1304 16.4222 9.4864 15.6522 8.89841 14.8543C8.32442 14.0563 7.86246 13.2583 7.52646 12.4603C7.19047 11.6623 7.0225 10.8924 7.0225 10.1644C7.0225 9.68842 7.10648 9.22643 7.27448 8.80644C7.44248 8.37245 7.7085 7.98047 8.08649 7.63048C8.53448 7.18249 9.02445 6.97249 9.54244 6.97249C9.73842 6.97249 9.93439 7.01448 10.1164 7.09847C10.2984 7.18247 10.4664 7.30847 10.5924 7.49047L12.2164 9.78641C12.3424 9.9684 12.4404 10.1224 12.4964 10.2764C12.5664 10.4304 12.5944 10.5704 12.5944 10.7104C12.5944 10.8784 12.5384 11.0464 12.4404 11.2143C12.3424 11.3823 12.2164 11.5503 12.0484 11.7183L11.5164 12.2783C11.4324 12.3623 11.4044 12.4463 11.4044 12.5583C11.4044 12.6143 11.4184 12.6703 11.4324 12.7263C11.4604 12.7823 11.4744 12.8243 11.4884 12.8663C11.6144 13.1043 11.8384 13.3983 12.1464 13.7623C12.4684 14.1263 12.8044 14.5043 13.1684 14.8683C13.5464 15.2463 13.9103 15.5822 14.2883 15.9042C14.6523 16.2122 14.9603 16.4222 15.1983 16.5482C15.2403 16.5622 15.2823 16.5902 15.3243 16.6042C15.3803 16.6322 15.4363 16.6322 15.5063 16.6322C15.6323 16.6322 15.7163 16.5902 15.8003 16.5062L16.3323 15.9742C16.5143 15.7922 16.6823 15.6662 16.8363 15.5822C17.0043 15.4842 17.1583 15.4283 17.3403 15.4283C17.4803 15.4283 17.6203 15.4563 17.7743 15.5262C17.9283 15.5962 18.0963 15.6802 18.2643 15.8062L20.5882 17.4582C20.7702 17.5842 20.8962 17.7382 20.9802 17.9062C21.0502 18.0882 21.0922 18.2562 21.0922 18.4522C21.0082 18.6902 20.9522 18.9562 20.8402 19.2082Z" fill="#5B4AFF"/>
</svg>
