<svg width="34" height="33" viewBox="0 0 34 33" fill="none" xmlns="http://www.w3.org/2000/svg">
<path fill-rule="evenodd" clip-rule="evenodd" d="M16.8835 0C7.94275 0 0.694824 7.24791 0.694824 16.1887C0.694824 25.1295 7.94275 32.3774 16.8835 32.3774C25.8242 32.3774 33.0722 25.1295 33.0722 16.1887C33.0722 7.24791 25.8242 0 16.8835 0ZM20.0385 8.09434C20.0385 8.33489 20.0609 8.5718 20.1023 8.80109C20.3014 9.86099 20.9286 10.7705 21.8 11.338C22.4084 11.7365 23.1295 11.9658 23.9069 11.9658L23.9067 12.586V14.7472C22.4646 14.7472 21.1276 14.2849 20.0385 13.5031V19.1599C20.0385 21.9827 17.7401 24.283 14.9197 24.283C13.8306 24.283 12.8166 23.9371 11.9866 23.3546C10.6647 22.4262 9.80096 20.8926 9.80096 19.1599C9.80096 16.3334 12.0956 14.0368 14.916 14.0405C15.1525 14.0405 15.3817 14.0594 15.607 14.0894V14.7472L15.5987 14.7511L15.6069 14.7509V16.931C15.3892 16.8633 15.1563 16.822 14.916 16.822C13.6279 16.822 12.58 17.8707 12.58 19.1599C12.58 20.0583 13.0908 20.8362 13.8344 21.2309C13.8413 21.2405 13.8483 21.25 13.8554 21.2594L13.8679 21.2758C13.8594 21.2593 13.8494 21.2431 13.8381 21.2272C14.1648 21.4001 14.5329 21.4979 14.9235 21.4979C16.1815 21.4979 17.2106 20.4943 17.2556 19.2464L17.2594 8.09434H20.0385Z" fill="white"/>
</svg>
