<svg width="33" height="33" viewBox="0 0 33 33" fill="none" xmlns="http://www.w3.org/2000/svg">
<path d="M23.1091 11.2157C22.9687 10.8519 22.7535 10.5215 22.4776 10.2459C22.2017 9.97027 21.8711 9.75549 21.5071 9.6154C21.006 9.42978 20.4766 9.33167 19.9422 9.32535C19.0535 9.28488 18.7871 9.27476 16.5359 9.27476C14.2846 9.27476 14.0182 9.28488 13.1295 9.32535C12.5945 9.33147 12.0646 9.42959 11.5629 9.6154C11.1991 9.75587 10.8687 9.971 10.5931 10.2469C10.3174 10.5228 10.1027 10.8534 9.96257 11.2174C9.77695 11.7186 9.67884 12.2479 9.67253 12.7823C9.63206 13.671 9.62194 13.9374 9.62194 16.1887C9.62194 18.4399 9.63206 18.7064 9.67253 19.595C9.67865 20.13 9.77676 20.6599 9.96257 21.1616C10.103 21.5255 10.3182 21.8558 10.5941 22.1315C10.87 22.4071 11.2006 22.6219 11.5646 22.762C12.0657 22.9476 12.5951 23.0457 13.1295 23.052C14.0182 23.0925 14.2846 23.1009 16.5359 23.1009C18.7871 23.1009 19.0535 23.0925 19.9422 23.0503C20.4771 23.0447 21.007 22.9472 21.5088 22.762C21.8726 22.6215 22.203 22.4064 22.4786 22.1304C22.7543 21.8545 22.969 21.5239 23.1091 21.1599C23.2947 20.6588 23.3929 20.1294 23.3992 19.595C23.4396 18.7064 23.4481 18.4399 23.4481 16.1887C23.4481 13.9374 23.4396 13.671 23.3975 12.7823C23.3919 12.2474 23.2944 11.7175 23.1091 11.2157ZM16.5359 20.5191C15.6794 20.5191 14.8421 20.2652 14.13 19.7893C13.4178 19.3135 12.8628 18.6372 12.535 17.8459C12.2073 17.0546 12.1215 16.1839 12.2886 15.3438C12.4557 14.5038 12.8681 13.7322 13.4737 13.1266C14.0794 12.5209 14.851 12.1085 15.691 11.9414C16.531 11.7743 17.4018 11.8601 18.1931 12.1878C18.9843 12.5156 19.6607 13.0707 20.1365 13.7828C20.6123 14.4949 20.8663 15.3322 20.8663 16.1887C20.8663 17.3372 20.4101 18.4387 19.598 19.2508C18.7858 20.0629 17.6844 20.5191 16.5359 20.5191ZM21.0366 12.6997C20.8365 12.6997 20.6409 12.6403 20.4745 12.5292C20.3081 12.418 20.1784 12.26 20.1019 12.0751C20.0253 11.8902 20.0052 11.6868 20.0443 11.4905C20.0833 11.2942 20.1797 11.1139 20.3212 10.9724C20.4627 10.8309 20.643 10.7346 20.8392 10.6955C21.0355 10.6565 21.239 10.6765 21.4238 10.7531C21.6087 10.8297 21.7667 10.9594 21.8779 11.1258C21.9891 11.2922 22.0484 11.4878 22.0484 11.6879C22.0484 11.9562 21.9418 12.2136 21.7521 12.4033C21.5623 12.5931 21.305 12.6997 21.0366 12.6997ZM19.3469 16.1887C19.3469 16.7447 19.1821 17.2882 18.8732 17.7504C18.5643 18.2127 18.1253 18.573 17.6116 18.7858C17.0979 18.9986 16.5327 19.0542 15.9874 18.9458C15.4421 18.8373 14.9412 18.5696 14.5481 18.1764C14.155 17.7833 13.8872 17.2824 13.7788 16.7371C13.6703 16.1918 13.726 15.6266 13.9387 15.1129C14.1515 14.5993 14.5118 14.1602 14.9741 13.8513C15.4364 13.5424 15.9799 13.3776 16.5359 13.3776C17.2814 13.3776 17.9964 13.6737 18.5236 14.2009C19.0508 14.7281 19.3469 15.4431 19.3469 16.1887ZM16.5359 0C13.334 0 10.2041 0.949449 7.5419 2.72828C4.87969 4.50712 2.80475 7.03544 1.57946 9.99354C0.354182 12.9516 0.0335925 16.2066 0.658236 19.3469C1.28288 22.4872 2.8247 25.3718 5.08873 27.6358C7.35276 29.8998 10.2373 31.4416 13.3776 32.0663C16.5179 32.6909 19.7729 32.3703 22.731 31.1451C25.6891 29.9198 28.2174 27.8448 29.9962 25.1826C31.7751 22.5204 32.7245 19.3905 32.7245 16.1887C32.7245 11.8952 31.0189 7.77752 27.983 4.74155C24.947 1.70559 20.8294 0 16.5359 0ZM24.9169 19.6642C24.9026 20.3639 24.7697 21.0561 24.524 21.7114C24.3074 22.2714 23.9762 22.7799 23.5517 23.2045C23.1271 23.629 22.6185 23.9602 22.0585 24.1768C21.4038 24.4224 20.7122 24.5552 20.013 24.5697C19.1125 24.6102 18.8259 24.6203 16.5359 24.6203C14.2458 24.6203 13.9592 24.6102 13.0587 24.5697C12.3595 24.5552 11.6679 24.4224 11.0132 24.1768C10.4532 23.9602 9.94459 23.629 9.52004 23.2045C9.09549 22.7799 8.76432 22.2714 8.54775 21.7114C8.30216 21.0566 8.16931 20.365 8.15484 19.6659C8.11437 18.7654 8.10425 18.4787 8.10425 16.1887C8.10425 13.8987 8.11437 13.612 8.15484 12.7115C8.16877 12.0124 8.30105 11.3208 8.54606 10.666C8.76262 10.1055 9.09396 9.59651 9.51882 9.17165C9.94369 8.74678 10.4527 8.41544 11.0132 8.19889C11.668 7.95387 12.3596 7.82159 13.0587 7.80766C13.9592 7.76719 14.2458 7.75707 16.5359 7.75707C18.8259 7.75707 19.1125 7.76719 20.013 7.80766C20.7121 7.82159 21.4037 7.95387 22.0585 8.19889C22.6187 8.41564 23.1274 8.74707 23.5519 9.17192C23.9765 9.59678 24.3076 10.1057 24.524 10.666C24.7695 11.3207 24.9024 12.0123 24.9169 12.7115C24.9573 13.612 24.9675 13.8987 24.9675 16.1887C24.9675 18.4787 24.9573 18.7637 24.9169 19.6642Z" fill="white"/>
</svg>
