<svg width="20" height="20" viewBox="0 0 20 20" fill="none" xmlns="http://www.w3.org/2000/svg">
<path d="M18.685 13.8035L14.4776 12.0003C14.2979 11.9237 14.0981 11.9076 13.9084 11.9543C13.7187 12.0011 13.5493 12.1082 13.4257 12.2595L11.5625 14.536C8.63822 13.1573 6.28488 10.8039 4.90613 7.87967L7.18263 6.0164C7.33428 5.89306 7.44161 5.72367 7.48838 5.53388C7.53515 5.34409 7.51881 5.14422 7.44184 4.96455L5.63867 0.757145C5.55419 0.563458 5.40477 0.405319 5.21618 0.309996C5.02759 0.214673 4.81165 0.188142 4.6056 0.234977L0.698729 1.13656C0.500068 1.18244 0.322822 1.29429 0.19592 1.45388C0.0690183 1.61346 -4.57634e-05 1.81134 2.27508e-08 2.01523C2.27508e-08 11.6509 7.80999 19.4459 17.4307 19.4459C17.6346 19.446 17.8326 19.377 17.9922 19.2501C18.1519 19.1232 18.2638 18.9459 18.3097 18.7472L19.2113 14.8403C19.2578 14.6332 19.2307 14.4164 19.1347 14.2272C19.0386 14.038 18.8796 13.8881 18.685 13.8035Z" fill="white"/>
</svg>
