<?xml version="1.0" encoding="UTF-8"?>
<svg id="Capa_2" data-name="Capa 2" xmlns="http://www.w3.org/2000/svg" viewBox="0 0 678.2 296.95">
  <defs>
    <style>
      .cls-1 {
        fill: #5b4aff;
      }

      .cls-1, .cls-2 {
        stroke-width: 0px;
      }

      .cls-2 {
        fill: #0affc1;
      }
    </style>
  </defs>
  <g id="Capa_1-2" data-name="Capa 1">
    <g>
      <g>
        <path class="cls-1" d="M35.03,131.18c6.91,13.08,21.96,22.7,41.7,22.7,17.52,0,30.1-6.91,30.1-17.51s-8.14-15.79-30.1-21.47l-21.47-5.67C23.44,100.59,6.41,83.57,6.41,57.91,6.41,25.1,33.8,1.17,75.49,1.17c32.81,0,59.95,14.06,72.04,38.73l-34.79,18.51c-6.17-11.84-21.22-19.99-37.75-19.99-15.05,0-25.9,6.91-25.9,17.52,0,9.87,7.65,14.56,30.1,20.47l21.46,5.68c31.83,8.63,48.85,25.9,48.85,52.3,0,32.57-29.6,56.74-73.27,56.74-36.27,0-63.65-15.54-76.23-41.2l35.03-18.75Z"/>
        <path class="cls-1" d="M488.1,111.22v79.92h-41.45s0-76.95,0-76.95c.13-3.5-.3-6.01-.3-6.01-1.92-12.53-12.7-22.18-25.75-22.37h-.41c-14.59,0-26.43,11.82-26.43,26.41v78.92h-41.44V53.47h41.44v16.54c7.64-12.59,21.96-19.98,38.75-19.98,34.54,0,55.6,22.97,55.6,61.19Z"/>
        <g>
          <rect class="cls-1" x="289.74" y="53.47" width="41.45" height="137.67"/>
          <polygon class="cls-1" points="289.74 10.85 331.19 5.55 331.19 39.9 289.74 39.9 289.74 10.85"/>
        </g>
        <path class="cls-1" d="M617.38,159.07c7.89-4.95,14.01-11.24,18.38-18.88,4.34-7.64,6.54-15.99,6.54-25.03,0-13-4.12-24.18-12.34-33.55l15.62-19.04-27.22-20.72-15.06,18.36c-8.38-3.96-17.33-6.25-27.36-6.25-13,0-24.57,2.61-34.68,7.78-10.11,5.19-18,12.42-23.66,21.71-5.69,9.29-8.52,19.87-8.52,31.71s2.75,23.14,8.27,32.42c5.5,9.32,13.3,16.49,23.41,21.6,10.14,5.08,21.93,7.64,35.42,7.64,8.71,0,15.42,1.7,20.09,5.06,4.7,3.38,7.03,8.19,7.03,14.43s-2.56,10.99-7.64,14.7c-5.11,3.68-11.76,5.55-19.98,5.55-9.2,0-16.24-2.23-21.1-6.68-4.84-4.42-8.35-10.69-8.02-18.74h-37.45v5.91c0,10.36,2.67,19.51,8,27.4,5.36,7.89,14.18,13.99,24.04,18.25,9.86,4.29,21.38,6.43,34.54,6.43s25.31-2.12,35.53-6.29c10.19-4.2,18.08-10.19,23.66-18.03,5.61-7.8,7.39-16.9,7.39-27.09,0-8.71-1.26-16.32-5.77-22.97-4.53-6.65-10.91-11.87-19.13-15.66ZM575,145.05c-16.43,0-29.76-13.33-29.76-29.76s13.33-29.79,29.76-29.79,29.79,13.33,29.79,29.79-13.33,29.76-29.79,29.76Z"/>
        <circle class="cls-2" cx="658.87" cy="19.33" r="19.33"/>
        <path class="cls-1" d="M268.62,154.62v36.52h-28.66c-33.8,0-53.03-18.99-53.03-55.76l.19-49.57h-27.1v-32.34h26.9v-29.4l41.44-5.39v34.79h40.2v32.34h-39.98s-.28,51.63-.14,52.7c1.13,10.83,6.28,16.12,17.51,16.12h22.67Z"/>
      </g>
      <g>
        <path class="cls-1" d="M171.82,294.67c-4.47-1.48-8.48-3.58-12.02-6.31l5.31-7.66c2.55,2.15,5.65,3.83,9.27,5.05,3.63,1.22,7.33,1.83,11.1,1.83,4.41,0,7.95-.83,10.62-2.48s4.01-3.85,4.01-6.57c0-2.5-1.22-4.47-3.66-5.92-2.44-1.45-6.3-2.53-11.58-3.22-8.3-1.16-14.31-3.19-18.03-6.1-3.72-2.9-5.57-7.02-5.57-12.37,0-3.37,1-6.37,3.01-9.01,2-2.64,4.79-4.7,8.36-6.18,3.57-1.48,7.65-2.22,12.24-2.22,4.06,0,8.07.67,12.02,2,3.95,1.34,7.46,3.19,10.54,5.57l-5.14,7.23c-2.5-1.92-5.26-3.37-8.27-4.35-3.02-.99-6.04-1.48-9.06-1.48-4.01,0-7.29.8-9.84,2.4-2.56,1.6-3.83,3.64-3.83,6.14s1.16,4.38,3.49,5.83c2.32,1.45,6.04,2.56,11.15,3.31,8.65,1.28,14.89,3.32,18.72,6.14,3.83,2.82,5.75,6.81,5.75,11.97,0,3.72-1.03,6.98-3.09,9.8-2.06,2.82-4.98,4.99-8.75,6.53-3.78,1.54-8.13,2.31-13.06,2.31-4.65,0-9.2-.74-13.67-2.22Z"/>
        <path class="cls-1" d="M213.55,234.68h49.73v9.4h-19.77v51.55h-10.19v-51.55h-19.77v-9.4Z"/>
        <path class="cls-1" d="M286.82,293.62c-3.95-2.15-6.98-5.21-9.1-9.19-2.12-3.98-3.18-8.66-3.18-14.06v-35.7h10.1v35.53c0,5.28,1.45,9.48,4.35,12.58,2.9,3.11,6.79,4.66,11.67,4.66s8.77-1.55,11.67-4.66c2.9-3.1,4.35-7.3,4.35-12.58v-35.53h10.1v35.7c0,5.4-1.06,10.09-3.18,14.06-2.12,3.98-5.15,7.04-9.1,9.19-3.95,2.15-8.56,3.22-13.85,3.22s-9.9-1.07-13.85-3.22Z"/>
        <path class="cls-1" d="M338.05,234.68h23.34c6.04,0,11.39,1.26,16.07,3.79,4.67,2.53,8.29,6.1,10.84,10.71,2.55,4.61,3.83,9.94,3.83,15.98s-1.28,11.36-3.83,15.98c-2.55,4.62-6.17,8.19-10.84,10.71-4.67,2.53-10.03,3.79-16.07,3.79h-23.34v-60.96ZM361.39,286.24c4.01,0,7.56-.88,10.67-2.66,3.11-1.77,5.51-4.25,7.23-7.45,1.71-3.19,2.57-6.85,2.57-10.97s-.86-7.78-2.57-10.97c-1.71-3.19-4.12-5.67-7.23-7.45-3.1-1.77-6.66-2.66-10.67-2.66h-13.15v42.15h13.15Z"/>
        <path class="cls-1" d="M403.45,234.68h10.19v60.96h-10.19v-60.96Z"/>
        <path class="cls-1" d="M439.93,292.99c-4.76-2.64-8.45-6.37-11.06-11.19-2.61-4.82-3.92-10.36-3.92-16.63s1.31-11.81,3.92-16.63c2.61-4.82,6.3-8.55,11.06-11.19,4.76-2.64,10.25-3.96,16.46-3.96s11.61,1.32,16.37,3.96c4.76,2.64,8.45,6.37,11.06,11.19,2.61,4.82,3.92,10.36,3.92,16.63s-1.31,11.82-3.92,16.63c-2.61,4.82-6.3,8.55-11.06,11.19-4.76,2.64-10.22,3.96-16.37,3.96s-11.7-1.32-16.46-3.96ZM437.89,276.83c1.77,3.37,4.25,5.99,7.44,7.88,3.19,1.89,6.88,2.83,11.06,2.83s7.78-.94,10.97-2.83c3.19-1.89,5.67-4.51,7.45-7.88,1.77-3.37,2.65-7.26,2.65-11.67s-.88-8.3-2.65-11.67c-1.77-3.37-4.25-5.99-7.45-7.88-3.19-1.89-6.85-2.83-10.97-2.83s-7.87.94-11.06,2.83c-3.19,1.89-5.68,4.51-7.44,7.88-1.77,3.37-2.66,7.26-2.66,11.67s.88,8.3,2.66,11.67Z"/>
      </g>
    </g>
  </g>
</svg>