<svg width="135" height="59" viewBox="0 0 135 59" fill="none" xmlns="http://www.w3.org/2000/svg">
<path d="M6.97294 26.0324C8.34842 28.6281 11.3442 30.5371 15.2736 30.5371C18.7611 30.5371 21.2652 29.1659 21.2652 27.0623C21.2652 24.9588 19.6449 23.9289 15.2736 22.8017L10.9999 21.6765C4.66588 19.9619 1.27595 16.5844 1.27595 11.4923C1.27595 4.98124 6.7281 0.232422 15.0268 0.232422C21.5578 0.232422 26.9602 3.02257 29.3668 7.91824L22.4416 11.5915C21.2134 9.24187 18.2176 7.62454 14.9272 7.62454C11.9314 7.62454 9.77167 8.9958 9.77167 11.1013C9.77167 13.06 11.2945 13.9907 15.7633 15.1635L20.035 16.2907C26.371 18.0033 29.7589 21.4304 29.7589 26.6694C29.7589 33.1328 23.8668 37.9292 15.1741 37.9292C7.95429 37.9292 2.50413 34.8454 0 29.7533L6.97294 26.0324Z" fill="white"/>
<path d="M97.1594 22.0711V37.931H88.9085V22.6605C88.9344 21.966 88.8488 21.4679 88.8488 21.4679C88.4666 18.9813 86.3208 17.0663 83.7231 17.0286H83.6415C80.7373 17.0286 78.3804 19.3743 78.3804 22.2696V37.931H70.1315V10.6109H78.3804V13.8932C79.9012 11.3947 82.7517 9.92822 86.0939 9.92822C92.9693 9.92822 97.1614 14.4865 97.1614 22.0711H97.1594Z" fill="white"/>
<path d="M65.9254 10.6108H57.6746V37.9309H65.9254V10.6108Z" fill="white"/>
<path d="M57.6746 2.15333L65.9254 1.10156V7.91819H57.6746V2.15333Z" fill="white"/>
<path d="M122.893 31.567C124.464 30.5847 125.682 29.3365 126.552 27.8204C127.416 26.3042 127.854 24.6472 127.854 22.8533C127.854 20.2735 127.034 18.0548 125.398 16.1954L128.507 12.417L123.089 8.30518L120.091 11.9486C118.423 11.1628 116.641 10.7084 114.645 10.7084C112.057 10.7084 109.754 11.2263 107.741 12.2523C105.729 13.2822 104.158 14.717 103.032 16.5605C101.899 18.4041 101.336 20.5037 101.336 22.8533C101.336 25.2029 101.883 27.4453 102.982 29.2869C104.077 31.1364 105.629 32.5593 107.642 33.5733C109.66 34.5814 112.007 35.0894 114.692 35.0894C116.426 35.0894 117.762 35.4268 118.691 36.0936C119.627 36.7643 120.091 37.7189 120.091 38.9572C120.091 40.1955 119.581 41.1381 118.57 41.8743C117.553 42.6046 116.229 42.9757 114.593 42.9757C112.762 42.9757 111.36 42.5332 110.393 41.6501C109.429 40.7729 108.731 39.5287 108.796 37.9312H101.342V39.104C101.342 41.1599 101.873 42.9757 102.934 44.5414C104.001 46.1072 105.757 47.3177 107.719 48.1631C109.682 49.0144 111.975 49.4391 114.595 49.4391C117.214 49.4391 119.633 49.0184 121.667 48.1909C123.696 47.3574 125.266 46.1687 126.377 44.6129C127.494 43.065 127.848 41.2591 127.848 39.237C127.848 37.5085 127.597 35.9983 126.699 34.6787C125.798 33.359 124.528 32.3231 122.892 31.571L122.893 31.567ZM114.459 28.7868C111.189 28.7868 108.536 26.1415 108.536 22.881C108.536 19.6206 111.189 16.9693 114.459 16.9693C117.73 16.9693 120.389 19.6146 120.389 22.881C120.389 26.1475 117.736 28.7868 114.459 28.7868Z" fill="white"/>
<path d="M131.152 7.67193C133.277 7.67193 135 5.95451 135 3.83596C135 1.71742 133.277 0 131.152 0C129.027 0 127.304 1.71742 127.304 3.83596C127.304 5.95451 129.027 7.67193 131.152 7.67193Z" fill="#00E7AD"/>
<path d="M53.4705 30.6838V37.931H47.7656C41.0375 37.931 37.2096 34.1626 37.2096 26.8657L37.2475 17.0287H31.853V10.611H37.2076V4.77666L45.4565 3.70703V10.611H53.4586V17.0287H45.5003C45.5003 17.0287 45.4446 27.2745 45.4725 27.4868C45.6974 29.636 46.7225 30.6858 48.9579 30.6858H53.4705V30.6838Z" fill="white"/>
<path d="M34.2019 58.4763C33.3121 58.1826 32.5139 57.7659 31.8092 57.2241L32.8662 55.704C33.3738 56.1307 33.9909 56.4641 34.7114 56.7062C35.434 56.9483 36.1705 57.0693 36.921 57.0693C37.7988 57.0693 38.5035 56.9046 39.0349 56.5772C39.5664 56.2498 39.8332 55.8132 39.8332 55.2734C39.8332 54.7773 39.5903 54.3863 39.1046 54.0986C38.6189 53.8108 37.8506 53.5965 36.7995 53.4596C35.1474 53.2294 33.951 52.8266 33.2106 52.2491C32.4701 51.6736 32.1018 50.856 32.1018 49.7943C32.1018 49.1255 32.3009 48.5302 32.701 48.0063C33.0991 47.4824 33.6545 47.0736 34.3651 46.7799C35.0757 46.4862 35.8879 46.3394 36.8015 46.3394C37.6097 46.3394 38.4079 46.4723 39.1942 46.7362C39.9805 47.0022 40.6792 47.3693 41.2922 47.8416L40.2691 49.2764C39.7715 48.8953 39.2221 48.6076 38.6229 48.4131C38.0218 48.2167 37.4206 48.1194 36.8195 48.1194C36.0212 48.1194 35.3683 48.2782 34.8607 48.5957C34.3512 48.9132 34.0984 49.318 34.0984 49.8141C34.0984 50.3103 34.3293 50.6833 34.7931 50.9711C35.2549 51.2588 35.9954 51.4791 37.0125 51.6279C38.7344 51.882 39.9765 52.2868 40.7389 52.8464C41.5013 53.406 41.8834 54.1978 41.8834 55.2218C41.8834 55.96 41.6784 56.607 41.2684 57.1666C40.8583 57.7262 40.2771 58.1568 39.5266 58.4624C38.7742 58.768 37.9083 58.9208 36.9269 58.9208C36.0013 58.9208 35.0956 58.774 34.2058 58.4803L34.2019 58.4763Z" fill="white"/>
<path d="M42.5085 46.5713H52.4076V48.4367H48.4722V58.6666H46.4438V48.4367H42.5085V46.5713Z" fill="white"/>
<path d="M57.0933 58.2677C56.3071 57.8411 55.7039 57.2338 55.2819 56.444C54.8599 55.6542 54.6489 54.7255 54.6489 53.6539V46.5693H56.6594V53.6201C56.6594 54.6679 56.948 55.5014 57.5253 56.1166C58.1025 56.7337 58.8769 57.0413 59.8483 57.0413C60.8197 57.0413 61.594 56.7337 62.1713 56.1166C62.7485 55.5014 63.0372 54.6679 63.0372 53.6201V46.5693H65.0476V53.6539C65.0476 54.7255 64.8366 55.6562 64.4146 56.444C63.9926 57.2338 63.3895 57.8411 62.6032 58.2677C61.8169 58.6944 60.8993 58.9067 59.8463 58.9067C58.7933 58.9067 57.8756 58.6944 57.0894 58.2677H57.0933Z" fill="white"/>
<path d="M67.291 46.5713H71.9369C73.1392 46.5713 74.2042 46.8213 75.1358 47.3234C76.0654 47.8255 76.7859 48.5339 77.2935 49.4488C77.8011 50.3636 78.0559 51.4213 78.0559 52.6199C78.0559 53.8185 77.8011 54.8743 77.2935 55.7911C76.7859 56.7079 76.0654 57.4164 75.1358 57.9165C74.2062 58.4185 73.1392 58.6686 71.9369 58.6686H67.291V46.5713ZM71.9369 56.8012C72.7352 56.8012 73.4418 56.6266 74.0609 56.2733C74.6799 55.9221 75.1577 55.4299 75.5 54.7949C75.8404 54.1619 76.0116 53.4355 76.0116 52.6179C76.0116 51.8003 75.8404 51.074 75.5 50.441C75.1597 49.8079 74.6799 49.3158 74.0609 48.9626C73.4438 48.6113 72.7352 48.4347 71.9369 48.4347H69.3193V56.7992H71.9369V56.8012Z" fill="white"/>
<path d="M80.3092 46.5713H82.3376V58.6686H80.3092V46.5713Z" fill="white"/>
<path d="M87.571 58.1428C86.6235 57.6189 85.8889 56.8787 85.3694 55.9222C84.8499 54.9657 84.5891 53.8663 84.5891 52.622C84.5891 51.3778 84.8499 50.2784 85.3694 49.3219C85.8889 48.3654 86.6235 47.6252 87.571 47.1013C88.5185 46.5774 89.6113 46.3154 90.8474 46.3154C92.0836 46.3154 93.1585 46.5774 94.106 47.1013C95.0535 47.6252 95.788 48.3654 96.3076 49.3219C96.8271 50.2784 97.0879 51.3778 97.0879 52.622C97.0879 53.8663 96.8271 54.9677 96.3076 55.9222C95.788 56.8787 95.0535 57.6189 94.106 58.1428C93.1585 58.6667 92.0716 58.9287 90.8474 58.9287C89.6232 58.9287 88.5185 58.6667 87.571 58.1428ZM87.1649 54.9379C87.5172 55.6067 88.0109 56.1266 88.6459 56.5017C89.2809 56.8767 90.0154 57.0633 90.8474 57.0633C91.6795 57.0633 92.3961 56.8767 93.0311 56.5017C93.6661 56.1266 94.1597 55.6067 94.5141 54.9379C94.8664 54.2691 95.0416 53.4972 95.0416 52.622C95.0416 51.7469 94.8664 50.9749 94.5141 50.3062C94.1617 49.6374 93.6681 49.1175 93.0311 48.7424C92.3961 48.3674 91.6676 48.1808 90.8474 48.1808C90.0273 48.1808 89.2809 48.3674 88.6459 48.7424C88.0109 49.1175 87.5152 49.6374 87.1649 50.3062C86.8126 50.9749 86.6354 51.7469 86.6354 52.622C86.6354 53.4972 86.8106 54.2691 87.1649 54.9379Z" fill="white"/>
</svg>
