<svg width="56" height="90" viewBox="0 0 56 90" fill="none" xmlns="http://www.w3.org/2000/svg">
<g clip-path="url(#clip0_2603_1204)">
<path d="M55.4889 23.0801C52.6407 8.26575 39.7414 -0.317213 27.9653 0.0110385C26.3736 0.129424 24.7605 0.102518 23.2006 0.38772C5.41948 3.64333 -4.66361 22.1868 2.13476 39.1214C3.0664 41.4406 4.14179 43.7115 5.32897 45.9016C11.217 56.82 19.1493 66.2424 26.9113 75.7886C27.8748 76.9725 28.4871 76.4774 29.1792 75.5734C34.6146 68.5025 40.1886 61.5447 45.4377 54.3447C49.0578 49.3671 51.9965 43.9267 54.1952 38.1205C56.0479 33.229 56.4684 28.1761 55.4889 23.0801ZM27.9334 42.1025C20.5654 42.1025 14.3846 35.9303 14.2568 28.4505C14.1291 20.9922 20.4323 14.5025 27.8482 14.4433C35.3493 14.3895 41.5887 20.6317 41.626 28.2299C41.6632 35.8012 35.4398 42.1079 27.9334 42.1025Z" fill="#5B4AFF"/>
<path d="M52.3107 82.7138C51.1341 83.9999 49.6275 85.0654 48.0996 85.9102C44.3996 87.9605 40.3217 88.8699 36.1745 89.408C27.3638 90.5488 18.6436 90.2098 10.2587 86.9596C8.15588 86.147 6.09561 84.904 4.3867 83.4188C1.50126 80.9058 1.57046 77.9515 4.408 75.3309C8.01747 72.0107 12.5426 70.7084 17.2275 69.9712C17.7971 69.8851 18.5797 70.5632 19.1227 71.0528C19.7882 71.6501 19.7456 72.2636 18.7926 72.6564C17.9781 72.9954 17.1423 73.3398 16.4023 73.8188C13.7191 75.5623 13.7298 77.7524 16.4449 79.4259C19.16 81.0995 22.2264 81.6053 25.3301 81.8905C26.2086 81.9712 27.1029 81.9013 27.992 81.9013C31.3938 82.025 34.7158 81.5623 37.8834 80.2815C39.5444 79.6089 41.3971 78.8125 41.5248 76.773C41.6579 74.6528 39.7148 73.9371 38.1869 73.0331C37.5321 72.6457 36.0947 72.8017 36.6057 71.4295C36.9784 70.434 37.6652 69.6645 39.06 69.9389C42.9143 70.7031 46.6516 71.7632 49.9523 73.991C50.8253 74.5829 51.6292 75.3309 52.3053 76.1434C54.0728 78.2636 54.1686 80.6744 52.3107 82.7138Z" fill="#5B4AFF"/>
</g>
<defs>
<clipPath id="clip0_2603_1204">
<rect width="56" height="90" fill="white"/>
</clipPath>
</defs>
</svg>
